<?xml version="1.0" encoding="UTF-8" standalone="no"?>
<!DOCTYPE svg PUBLIC "-//W3C//DTD SVG 1.1//EN" "http://www.w3.org/Graphics/SVG/1.1/DTD/svg11.dtd">
<svg version="1.1" xmlns="http://www.w3.org/2000/svg" xmlns:xlink="http://www.w3.org/1999/xlink" preserveAspectRatio="xMidYMid meet" viewBox="0 0 15 15" width="15" height="15"><defs><path d="M3 13.5C3 14.33 2.33 15 1.5 15C0.67 15 0 14.33 0 13.5C0 12.67 0.67 12 1.5 12C2.33 12 3 12.67 3 13.5Z" id="b4tWUJhxat"></path><path d="M9 7.5C9 8.33 8.33 9 7.5 9C6.67 9 6 8.33 6 7.5C6 6.67 6.67 6 7.5 6C8.33 6 9 6.67 9 7.5Z" id="a1esvffxaS"></path><path d="M15 1.5C15 2.33 14.33 3 13.5 3C12.67 3 12 2.33 12 1.5C12 0.67 12.67 0 13.5 0C14.33 0 15 0.67 15 1.5Z" id="b4v2mNcCe"></path><path d="M15 13.5C15 14.33 14.33 15 13.5 15C12.67 15 12 14.33 12 13.5C12 12.67 12.67 12 13.5 12C14.33 12 15 12.67 15 13.5Z" id="c4UU870SHJ"></path><path d="M9 13.5C9 14.33 8.33 15 7.5 15C6.67 15 6 14.33 6 13.5C6 12.67 6.67 12 7.5 12C8.33 12 9 12.67 9 13.5Z" id="f6dBAMIms7"></path><path d="M15 7.5C15 8.33 14.33 9 13.5 9C12.67 9 12 8.33 12 7.5C12 6.67 12.67 6 13.5 6C14.33 6 15 6.67 15 7.5Z" id="a2SJqdo8js"></path></defs><g><g><g><use xlink:href="#b4tWUJhxat" opacity="1" fill="#ffffff" fill-opacity="1"></use></g><g><use xlink:href="#a1esvffxaS" opacity="1" fill="#ffffff" fill-opacity="1"></use></g><g><use xlink:href="#b4v2mNcCe" opacity="1" fill="#ffffff" fill-opacity="1"></use></g><g><use xlink:href="#c4UU870SHJ" opacity="1" fill="#ffffff" fill-opacity="1"></use></g><g><use xlink:href="#f6dBAMIms7" opacity="1" fill="#ffffff" fill-opacity="1"></use></g><g><use xlink:href="#a2SJqdo8js" opacity="1" fill="#ffffff" fill-opacity="1"></use></g></g></g></svg>